<?xml version="1.0" standalone="no"?>
<!DOCTYPE svg PUBLIC "-//W3C//DTD SVG 20010904//EN"
 "http://www.w3.org/TR/2001/REC-SVG-20010904/DTD/svg10.dtd">
<svg version="1.0" xmlns="http://www.w3.org/2000/svg"
 width="700.000000pt" height="700.000000pt" viewBox="0 0 700.000000 700.000000"
 preserveAspectRatio="xMidYMid meet">
<metadata>
Created by potrace 1.11, written by Peter Selinger 2001-2013
</metadata>
<g transform="translate(0.000000,700.000000) scale(0.100000,-0.100000)"
fill="#000000" stroke="none">
<path d="M3278 6995 c-2 -1 -41 -5 -88 -9 -87 -7 -105 -9 -225 -27 -116 -18
-123 -19 -192 -35 -178 -40 -341 -84 -388 -104 -11 -4 -76 -29 -145 -55 -381
-145 -751 -370 -1065 -649 -364 -324 -686 -763 -869 -1186 -16 -36 -35 -78
-42 -95 -54 -120 -153 -432 -180 -570 -2 -11 -10 -54 -19 -95 -29 -147 -36
-200 -52 -370 -15 -164 -8 -589 12 -711 2 -13 6 -46 10 -74 9 -76 16 -116 25
-160 5 -22 11 -53 14 -70 28 -152 109 -421 185 -609 52 -129 170 -362 251
-495 420 -695 1070 -1219 1845 -1490 209 -73 532 -148 720 -166 39 -4 79 -9
90 -12 11 -3 139 -6 285 -8 274 -4 446 8 620 40 14 3 40 7 58 10 127 21 301
65 459 116 899 292 1661 962 2071 1820 133 279 231 585 286 889 14 81 17 101
32 215 3 27 8 61 10 75 9 49 11 526 4 605 -13 130 -21 202 -25 227 -3 13 -8
43 -11 68 -9 69 -70 336 -97 425 -206 676 -586 1250 -1127 1703 -67 56 -306
231 -351 257 -10 5 -54 32 -99 58 -324 192 -687 334 -1038 408 -54 11 -106 22
-117 25 -11 2 -38 6 -60 9 -22 3 -51 7 -65 10 -13 2 -52 7 -86 11 -33 3 -74 8
-90 10 -32 5 -540 14 -546 9z"/>
</g>
</svg>
